<svg width="24" height="24" viewBox="0 0 24 24" fill="none" xmlns="http://www.w3.org/2000/svg">
<path d="M12.0014 0C5.37379 0 0.000976562 5.37196 0.000976562 11.9979C0.000976562 18.6272 5.37379 24 12.0014 24C18.629 24 24.0001 18.6263 24.0001 11.9979C24.0001 5.37196 18.629 0 12.0014 0ZM12.0014 22.7709C6.05097 22.7709 1.23003 17.9474 1.23003 11.997C1.23003 6.04914 6.05097 1.22734 12.0014 1.22734C17.9501 1.22734 22.7719 6.04914 22.7719 11.997C22.7711 17.9474 17.9493 22.7709 12.0014 22.7709Z" fill="#FF0000"/>
<path d="M13.3711 14.7263L13.8964 3.93005H10.1311L10.6547 14.7263H13.3711Z" fill="#FF0000"/>
<path d="M12.0141 15.9176C10.7516 15.9176 9.86841 16.8008 9.86841 18.0856C9.86841 19.3241 10.7258 20.2553 11.966 20.2553H12.0141C13.3007 20.2553 14.1332 19.3241 14.1332 18.0856C14.1109 16.8008 13.2758 15.9176 12.0141 15.9176Z" fill="#FF0000"/>
</svg>
