<svg width="98" height="98" viewBox="0 0 98 98" fill="none" xmlns="http://www.w3.org/2000/svg">
<g clip-path="url(#clip0_25_2427)">
<path d="M54.9216 59.3427V52.3866C54.9216 49.6438 52.6902 47.4125 49.9475 47.4125C47.2048 47.4125 44.9734 49.6438 44.9734 52.3866V58.667C44.9734 66.2355 42.1852 73.5019 37.122 79.1274L30.1411 86.884C29.5546 87.5358 29.6075 88.5395 30.2592 89.1262C30.9107 89.7127 31.9144 89.6598 32.5012 89.0081L39.482 81.2515C45.0706 75.0417 48.1484 67.0212 48.1484 58.667V52.3866C48.1484 51.3945 48.9554 50.5874 49.9475 50.5874C50.9396 50.5874 51.7466 51.3945 51.7466 52.3866V59.3427C51.7466 68.6565 48.2963 77.581 42.0311 84.4728L35.2263 91.958C34.6366 92.6066 34.6845 93.6109 35.3332 94.2006C35.6374 94.4772 36.0194 94.6133 36.4004 94.6133C36.8322 94.6133 37.2623 94.4383 37.5756 94.0937L44.3801 86.6085C51.1779 79.131 54.9216 69.4479 54.9216 59.3427Z" fill="#805418"/>
<path d="M61.6949 52.3866C61.6949 45.9091 56.4251 40.6393 49.9476 40.6393C43.47 40.6393 38.2003 45.9091 38.2003 52.3866V58.667C38.2003 64.5595 36.0294 70.2167 32.0876 74.5964L27.1248 80.1108C26.5383 80.7626 26.5912 81.7663 27.2429 82.353C27.8946 82.9395 28.8981 82.8862 29.4848 82.2349L34.4477 76.7204C38.915 71.7567 41.3754 65.3452 41.3754 58.667V52.3866C41.3754 47.6597 45.2209 43.8142 49.9478 43.8142C54.6746 43.8142 58.5201 47.6597 58.5201 52.3866V59.3427C58.5201 70.3447 54.4443 80.8876 47.0431 89.0288L41.3018 95.3447C40.7119 95.9932 40.7597 96.9975 41.4084 97.5872C41.7126 97.8639 42.0947 98 42.4756 98C42.9074 98 43.3375 97.8249 43.6508 97.4803L49.3924 91.1645C57.3257 82.4377 61.6949 71.1365 61.6949 59.3427V52.3866Z" fill="#805418"/>
<path d="M68.4679 52.3866C68.4679 42.1743 60.1597 33.8661 49.9474 33.8661C39.7351 33.8661 31.4269 42.1743 31.4269 52.3866V58.6671C31.4269 62.8834 29.8735 66.9315 27.0529 70.0653L22.5843 75.0305C21.9977 75.6822 22.0507 76.686 22.7024 77.2727C23.3539 77.8592 24.3578 77.8059 24.9443 77.1546L29.4129 72.1894C32.7591 68.4715 34.6018 63.6691 34.6018 58.6671V52.3866C34.6018 43.925 41.4858 37.041 49.9474 37.041C58.4091 37.041 65.293 43.925 65.293 52.3866V59.3427C65.293 72.0336 60.5915 84.1945 52.0545 93.5849L50.4656 95.3328C49.8759 95.9816 49.9237 96.9857 50.5725 97.5754C50.8766 97.8518 51.2589 97.9881 51.6397 97.9881C52.0715 97.9881 52.5016 97.8131 52.8148 97.4685L54.4036 95.7206C63.4729 85.7443 68.4677 72.8252 68.4677 59.3427V52.3866H68.4679Z" fill="#805418"/>
<path d="M24.6538 52.3866C24.6538 53.2636 25.3646 53.9741 26.2413 53.9741C27.118 53.9741 27.8288 53.2636 27.8288 52.3866C27.8288 47.0411 29.7695 41.8774 33.2937 37.8464C36.7851 33.853 41.5769 31.2415 46.7864 30.4931C47.6542 30.3684 48.2566 29.5637 48.1319 28.696C48.0072 27.8282 47.2019 27.2267 46.3349 27.3505C40.3744 28.2069 34.8941 31.1922 30.9034 35.7569C26.8733 40.3663 24.6538 46.2723 24.6538 52.3866Z" fill="#805418"/>
<path d="M27.8287 58.6671C27.8287 57.7901 27.118 57.0796 26.2413 57.0796C25.3645 57.0796 24.6538 57.7901 24.6538 58.6671C24.6538 61.2074 23.718 63.646 22.0188 65.534L18.044 69.9508C17.4575 70.6023 17.5104 71.606 18.1621 72.1928C18.4656 72.4658 18.8451 72.6002 19.2236 72.6002C19.6579 72.6002 20.0908 72.4228 20.404 72.0746L24.3788 67.6581C26.6034 65.1861 27.8287 61.9931 27.8287 58.6671Z" fill="#805418"/>
<path d="M72.1255 72.8381C71.2769 72.6172 70.41 73.1241 70.1877 73.972C69.6016 76.2112 68.8726 78.4373 68.0203 80.5882C67.6973 81.4033 68.0963 82.3259 68.9114 82.6487C69.1034 82.7247 69.301 82.7607 69.4958 82.7607C70.1276 82.7607 70.7251 82.3808 70.9721 81.7576C71.8715 79.4875 72.6409 77.1387 73.2594 74.7757C73.4812 73.9278 72.9734 73.0602 72.1255 72.8381Z" fill="#805418"/>
<path d="M66.8415 33.5765C66.1894 32.99 65.1856 33.0438 64.5996 33.6957C64.0135 34.3476 64.0668 35.3513 64.7187 35.9374C69.3882 40.1351 72.0662 46.1305 72.0662 52.3866V59.3427C72.0662 61.9828 71.8841 64.6432 71.525 67.2502C71.4054 68.1189 72.0124 68.9198 72.8809 69.0394C72.9543 69.0496 73.0273 69.0544 73.0995 69.0544C73.8801 69.0544 74.5606 68.4783 74.6701 67.6833C75.0489 64.9331 75.2411 62.1269 75.2411 59.3425V52.3866C75.2413 45.2313 72.1796 38.3754 66.8415 33.5765Z" fill="#805418"/>
<path d="M59.42 32.4005C59.6404 32.5055 59.8725 32.555 60.1014 32.555C60.6946 32.555 61.2638 32.2208 61.5358 31.6496C61.9128 30.8581 61.5764 29.9107 60.785 29.534C58.4978 28.445 56.0668 27.7103 53.5597 27.3503C52.6906 27.2264 51.8873 27.8282 51.7627 28.6958C51.638 29.5634 52.2404 30.3681 53.1082 30.4928C55.2985 30.8076 57.4219 31.4493 59.42 32.4005Z" fill="#805418"/>
<path d="M49.9476 20.3197C49.3537 20.3197 48.753 20.3362 48.1618 20.3688C47.2864 20.4171 46.6158 21.1659 46.6641 22.0412C46.7125 22.9166 47.4606 23.5907 48.3366 23.5387C48.8698 23.5093 49.4117 23.4944 49.9474 23.4944C65.8784 23.4944 78.8394 36.4552 78.8394 52.3864V59.3425C78.8394 60.2195 79.5502 60.93 80.4269 60.93C81.3036 60.93 82.0143 60.2195 82.0143 59.3425V52.3867C82.0146 34.705 67.6293 20.3197 49.9476 20.3197Z" fill="#805418"/>
<path d="M32.5902 28.9329C32.9028 28.9329 33.2188 28.8406 33.4951 28.6486C36.1362 26.812 39.0368 25.4409 42.1167 24.5724C42.9606 24.3345 43.4519 23.4574 43.214 22.6137C42.9761 21.77 42.0988 21.2794 41.2553 21.5164C37.8348 22.4808 34.6141 24.0033 31.6826 26.0416C30.9627 26.5422 30.7849 27.5315 31.2855 28.2511C31.5939 28.6952 32.0879 28.9329 32.5902 28.9329Z" fill="#805418"/>
<path d="M21.0555 58.6671V52.3866C21.0555 45.0017 23.8522 37.9685 28.9304 32.5823C29.5317 31.9444 29.5023 30.9398 28.8644 30.3383C28.2264 29.7367 27.2216 29.7666 26.6203 30.4043C20.9843 36.3819 17.8805 44.1889 17.8805 52.3866V58.6671C17.8805 59.5313 17.5622 60.3608 16.9843 61.0028L15.0269 63.1776C14.4404 63.8293 14.4933 64.833 15.145 65.4195C15.4483 65.6928 15.828 65.8272 16.2065 65.8272C16.6408 65.8272 17.0734 65.65 17.3869 65.3019L19.3444 63.127C20.4478 61.9006 21.0555 60.3168 21.0555 58.6671Z" fill="#805418"/>
<path d="M86.7716 40.0263C85.0304 34.852 82.2634 30.1774 78.5472 26.1323C77.9539 25.4867 76.9498 25.444 76.3042 26.0373C75.6586 26.6306 75.6161 27.6347 76.2092 28.2805C79.6227 31.996 82.1641 36.2885 83.7626 41.0387C83.9857 41.7018 84.6042 42.1203 85.2669 42.1203C85.4347 42.1203 85.6055 42.0934 85.7734 42.0369C86.6042 41.7573 87.0512 40.8571 86.7716 40.0263Z" fill="#805418"/>
<path d="M62.4929 15.6254C61.6638 15.3415 60.7609 15.7837 60.477 16.6134C60.1932 17.4429 60.6356 18.3455 61.4651 18.6291C64.9656 19.8269 68.2521 21.5621 71.2333 23.7871C71.5184 23.9998 71.8514 24.1023 72.1816 24.1023C72.6654 24.1023 73.1434 23.8819 73.4552 23.4641C73.9797 22.7616 73.8349 21.7668 73.1324 21.2425C69.8861 18.8202 66.3065 16.9301 62.4929 15.6254Z" fill="#805418"/>
<path d="M25.2816 26.65C31.9593 20.2474 40.7192 16.7213 49.9475 16.7213C51.6611 16.7213 53.3843 16.8447 55.0689 17.0877C55.9374 17.2143 56.7417 16.6111 56.867 15.7432C56.9923 14.8754 56.3905 14.0707 55.5227 13.9454C53.688 13.6808 51.8123 13.5464 49.9475 13.5464C39.8963 13.5464 30.356 17.3862 23.0843 24.3583C15.8353 31.3089 11.5959 40.6363 11.1471 50.6223C11.1078 51.4982 11.7859 52.2403 12.6616 52.2795C12.6859 52.2807 12.7101 52.2812 12.7342 52.2812C13.5781 52.2812 14.2806 51.6165 14.3189 50.765C14.7306 41.5975 18.6239 33.0334 25.2816 26.65Z" fill="#805418"/>
<path d="M49.9476 6.77319C46.3976 6.77319 42.8601 7.18467 39.4334 7.99618C38.5802 8.19811 38.0526 9.05365 38.2545 9.90665C38.4566 10.7597 39.3122 11.2875 40.1652 11.0854C43.3524 10.331 46.6435 9.94814 49.9476 9.94814C61.5882 9.94814 72.4541 14.5859 80.5435 23.0067C80.8553 23.3312 81.2714 23.4946 81.6886 23.4946C82.0842 23.4946 82.4804 23.3477 82.7882 23.052C83.4204 22.4445 83.4407 21.4395 82.8333 20.8075C78.6184 16.4199 73.6674 12.9684 68.118 10.5493C62.3701 8.0436 56.2566 6.77319 49.9476 6.77319Z" fill="#805418"/>
<path d="M14.2888 26.5434C14.5792 26.7707 14.924 26.881 15.2664 26.881C15.7378 26.881 16.2043 26.6721 16.5174 26.2722C21.0417 20.4934 26.9979 15.9606 33.7419 13.1635C34.5517 12.8276 34.9361 11.8988 34.6002 11.089C34.2642 10.2792 33.335 9.89438 32.5256 10.2307C25.2781 13.2365 18.878 18.1067 14.0176 24.3146C13.477 25.0052 13.5985 26.003 14.2888 26.5434Z" fill="#805418"/>
<path d="M27.9361 8.19665C28.1676 8.19665 28.4028 8.14585 28.625 8.03833C35.3089 4.8111 42.4828 3.17495 49.9475 3.17495C53.8375 3.17495 57.7118 3.63256 61.4622 4.53509C62.3142 4.73956 63.1718 4.21548 63.3769 3.36311C63.582 2.51075 63.0573 1.6533 62.2047 1.4482C58.2115 0.487248 54.0875 0 49.9475 0C42.0009 0 34.3626 1.74241 27.2448 5.17918C26.4553 5.56039 26.1242 6.50949 26.5054 7.29899C26.7791 7.86604 27.346 8.19665 27.9361 8.19665Z" fill="#805418"/>
<path d="M68.0971 6.64259C69.7337 7.2943 71.3536 8.04359 72.9116 8.86929C73.1485 8.99501 73.4029 9.05449 73.6535 9.05449C74.2225 9.05449 74.7726 8.74779 75.0575 8.20995C75.4679 7.43527 75.1728 6.47453 74.3981 6.0639C72.7393 5.18487 71.0145 4.38711 69.2717 3.69307C68.457 3.36859 67.5339 3.76609 67.2094 4.58036C66.8852 5.39484 67.2827 6.31832 68.0971 6.64259Z" fill="#805418"/>
<path d="M55.1411 59.4153V52.4592C55.1411 49.7165 52.9097 47.4851 50.167 47.4851C47.4243 47.4851 45.1929 49.7165 45.1929 52.4592V58.7397C45.1929 66.3081 42.4047 73.5745 37.3415 79.2001L30.3606 86.9567C29.7741 87.6084 29.827 88.6121 30.4787 89.1988C31.1302 89.7853 32.1339 89.7324 32.7207 89.0807L39.7015 81.3241C45.2901 75.1143 48.3679 67.0938 48.3679 58.7397V52.4592C48.3679 51.4671 49.1749 50.6601 50.167 50.6601C51.1591 50.6601 51.9661 51.4671 51.9661 52.4592V59.4153C51.9661 68.7291 48.5158 77.6537 42.2506 84.5454L35.4458 92.0307C34.8561 92.6792 34.904 93.6835 35.5527 94.2732C35.8569 94.5499 36.2389 94.686 36.6199 94.686C37.0517 94.686 37.4818 94.5109 37.7951 94.1663L44.5996 86.6811C51.3974 79.2037 55.1411 69.5205 55.1411 59.4153Z" fill="#FFA830"/>
<path d="M61.9143 52.4592C61.9143 45.9817 56.6446 40.7119 50.167 40.7119C43.6895 40.7119 38.4197 45.9817 38.4197 52.4592V58.7397C38.4197 64.6322 36.2489 70.2893 32.3071 74.669L27.3443 80.1835C26.7577 80.8352 26.8107 81.8389 27.4624 82.4256C28.1141 83.0121 29.1176 82.9588 29.7043 82.3075L34.6672 76.7931C39.1345 71.8293 41.5949 65.4179 41.5949 58.7397V52.4592C41.5949 47.7324 45.4404 43.8869 50.1673 43.8869C54.8941 43.8869 58.7396 47.7324 58.7396 52.4592V59.4153C58.7396 70.4173 54.6638 80.9603 47.2626 89.1015L41.5212 95.4173C40.9313 96.0658 40.9792 97.0702 41.6279 97.6599C41.9321 97.9365 42.3141 98.0726 42.6951 98.0726C43.1269 98.0726 43.557 97.8976 43.8703 97.553L49.6119 91.2372C57.5452 82.5103 61.9143 71.2092 61.9143 59.4153V52.4592Z" fill="#FFA830"/>
<path d="M68.6874 52.4592C68.6874 42.2469 60.3792 33.9387 50.1669 33.9387C39.9546 33.9387 31.6464 42.2469 31.6464 52.4592V58.7397C31.6464 62.956 30.093 67.0041 27.2724 70.138L22.8037 75.1032C22.2172 75.7549 22.2701 76.7586 22.9218 77.3453C23.5733 77.9318 24.5773 77.8785 25.1638 77.2272L29.6324 72.262C32.9786 68.5442 34.8213 63.7417 34.8213 58.7397V52.4592C34.8213 43.9976 41.7052 37.1137 50.1669 37.1137C58.6286 37.1137 65.5125 43.9976 65.5125 52.4592V59.4153C65.5125 72.1062 60.811 84.2671 52.274 93.6575L50.6851 95.4055C50.0954 96.0542 50.1432 97.0583 50.7919 97.648C51.0961 97.9245 51.4784 98.0608 51.8591 98.0608C52.2909 98.0608 52.721 97.8857 53.0343 97.5411L54.623 95.7932C63.6924 85.8169 68.6872 72.8979 68.6872 59.4153V52.4592H68.6874Z" fill="#FFA830"/>
<path d="M28.0482 58.7397C28.0482 57.8628 27.3374 57.1522 26.4607 57.1522C25.584 57.1522 24.8733 57.8628 24.8733 58.7397C24.8733 61.2801 23.9375 63.7186 22.2383 65.6067L18.2635 70.0235C17.6769 70.675 17.7298 71.6787 18.3816 72.2654C18.6851 72.5384 19.0646 72.6728 19.443 72.6728C19.8774 72.6728 20.3102 72.4955 20.6235 72.1473L24.5983 67.7307C26.8229 65.2587 28.0482 62.0658 28.0482 58.7397Z" fill="#FFA830"/>
<path d="M72.345 72.9108C71.4964 72.6898 70.6294 73.1967 70.4072 74.0446C69.8211 76.2838 69.0921 78.5099 68.2398 80.6608C67.9168 81.4759 68.3157 82.3986 69.1309 82.7213C69.3228 82.7973 69.5205 82.8333 69.7153 82.8333C70.3471 82.8333 70.9446 82.4534 71.1916 81.8302C72.091 79.5602 72.8604 77.2113 73.4788 74.8483C73.7007 74.0004 73.1929 73.1328 72.345 72.9108Z" fill="#FFA830"/>
<path d="M67.061 33.6492C66.4088 33.0626 65.4051 33.1164 64.819 33.7683C64.2329 34.4202 64.2863 35.424 64.9382 36.01C69.6077 40.2077 72.2857 46.2031 72.2857 52.4592V59.4153C72.2857 62.0554 72.1036 64.7158 71.7444 67.3228C71.6248 68.1915 72.2319 68.9924 73.1004 69.112C73.1738 69.1222 73.2468 69.1271 73.319 69.1271C74.0996 69.1271 74.7801 68.5509 74.8895 67.7559C75.2684 65.0058 75.4606 62.1995 75.4606 59.4151V52.4592C75.4608 45.304 72.3991 38.448 67.061 33.6492Z" fill="#FFA830"/>
<path d="M59.6395 32.4732C59.8598 32.5781 60.092 32.6277 60.3208 32.6277C60.9141 32.6277 61.4833 32.2935 61.7553 31.7222C62.1322 30.9308 61.7959 29.9834 61.0045 29.6066C58.7173 28.5176 56.2863 27.7829 53.7792 27.4229C52.9101 27.2991 52.1068 27.9008 51.9822 28.7684C51.8575 29.636 52.4599 30.4408 53.3277 30.5654C55.518 30.8802 57.6414 31.522 59.6395 32.4732Z" fill="#FFA830"/>
</g>
<defs>
<clipPath id="clip0_25_2427">
<rect width="98" height="98" fill="white"/>
</clipPath>
</defs>
</svg>
