<svg width="16" height="16" viewBox="0 0 16 16" fill="none" xmlns="http://www.w3.org/2000/svg">
<path d="M7.01683 11.0334L11.7335 6.31671L10.9668 5.56671L7.01683 9.51671L5.01683 7.51671L4.26683 8.26671L7.01683 11.0334ZM8.00016 14.6667C7.08905 14.6667 6.22794 14.4917 5.41683 14.1417C4.60572 13.7917 3.89738 13.3139 3.29183 12.7084C2.68627 12.1028 2.2085 11.3945 1.8585 10.5834C1.5085 9.77226 1.3335 8.91115 1.3335 8.00004C1.3335 7.07782 1.5085 6.21115 1.8585 5.40004C2.2085 4.58893 2.68627 3.88337 3.29183 3.28337C3.89738 2.68337 4.60572 2.20837 5.41683 1.85837C6.22794 1.50837 7.08905 1.33337 8.00016 1.33337C8.92238 1.33337 9.78905 1.50837 10.6002 1.85837C11.4113 2.20837 12.1168 2.68337 12.7168 3.28337C13.3168 3.88337 13.7918 4.58893 14.1418 5.40004C14.4918 6.21115 14.6668 7.07782 14.6668 8.00004C14.6668 8.91115 14.4918 9.77226 14.1418 10.5834C13.7918 11.3945 13.3168 12.1028 12.7168 12.7084C12.1168 13.3139 11.4113 13.7917 10.6002 14.1417C9.78905 14.4917 8.92238 14.6667 8.00016 14.6667Z" fill="#1C1D21"/>
</svg>
