<svg width="24" height="24" viewBox="0 0 24 24" fill="none" xmlns="http://www.w3.org/2000/svg">
<path d="M10.775 15.75C10.7916 14.55 10.9291 13.675 11.1875 13.125C11.4458 12.575 11.9333 11.975 12.65 11.325C13.35 10.6917 13.8875 10.1042 14.2625 9.5625C14.6375 9.02083 14.825 8.44167 14.825 7.825C14.825 7.075 14.575 6.45 14.075 5.95C13.575 5.45 12.875 5.2 11.975 5.2C11.1083 5.2 10.4416 5.44583 9.97498 5.9375C9.50831 6.42917 9.16664 6.94167 8.94998 7.475L6.84998 6.55C7.21664 5.56667 7.83748 4.72917 8.71248 4.0375C9.58748 3.34583 10.675 3 11.975 3C13.6416 3 14.925 3.4625 15.825 4.3875C16.725 5.3125 17.175 6.425 17.175 7.725C17.175 8.525 17.0041 9.25 16.6625 9.9C16.3208 10.55 15.775 11.2333 15.025 11.95C14.2083 12.7333 13.7166 13.3333 13.55 13.75C13.3833 14.1667 13.2916 14.8333 13.275 15.75H10.775ZM11.975 22C11.4916 22 11.0791 21.8292 10.7375 21.4875C10.3958 21.1458 10.225 20.7333 10.225 20.25C10.225 19.7667 10.3958 19.3542 10.7375 19.0125C11.0791 18.6708 11.4916 18.5 11.975 18.5C12.4583 18.5 12.8708 18.6708 13.2125 19.0125C13.5541 19.3542 13.725 19.7667 13.725 20.25C13.725 20.7333 13.5541 21.1458 13.2125 21.4875C12.8708 21.8292 12.4583 22 11.975 22Z" fill="#E4E4F0"/>
</svg>
